<svg id="Capa_1" enable-background="new 0 0 512 512" height="512" viewBox="0 0 512 512" width="512" xmlns="http://www.w3.org/2000/svg"><g><path d="m143.131 222.802c19.179 0 34.782-15.604 34.782-34.782v-57.24c0-19.179-15.604-34.782-34.782-34.782-19.18 0-34.783 15.604-34.783 34.782v57.239c0 19.179 15.604 34.783 34.783 34.783zm-19.783-92.022c0-10.908 8.875-19.782 19.783-19.782s19.782 8.874 19.782 19.782v57.239c0 10.908-8.874 19.782-19.782 19.782s-19.783-8.874-19.783-19.782z"/><path d="m140.875 149.337h4.512c4.143 0 7.5-3.357 7.5-7.5s-3.357-7.5-7.5-7.5h-4.512c-4.143 0-7.5 3.357-7.5 7.5s3.358 7.5 7.5 7.5z"/><path d="m140.875 184.463h4.512c4.143 0 7.5-3.357 7.5-7.5s-3.357-7.5-7.5-7.5h-4.512c-4.143 0-7.5 3.357-7.5 7.5s3.358 7.5 7.5 7.5z"/><path d="m394.751 149.376v58.919c0 4.143 3.357 7.5 7.5 7.5s7.5-3.357 7.5-7.5v-58.919c0-4.143-3.357-7.5-7.5-7.5s-7.5 3.357-7.5 7.5z"/><path d="m454.853 181.846c4.143 0 7.5-3.357 7.5-7.5v-70.848c0-4.143-3.357-7.5-7.5-7.5h-4.439v-19.226c0-4.143-3.357-7.5-7.5-7.5h-2.689v-38.728c0-10.131-8.241-18.373-18.372-18.373h-39.201c-10.131 0-18.373 8.242-18.373 18.373v38.729h-2.689c-4.143 0-7.5 3.357-7.5 7.5v19.226h-4.439c-4.143 0-7.5 3.357-7.5 7.5v171.683c0 4.143 3.357 7.5 7.5 7.5h9.757v27.544c0 4.143 3.357 7.5 7.5 7.5h11.118v40.731c0 57.296-46.614 103.91-103.91 103.91-20.964 0-41.183-6.245-58.472-18.062-3.418-2.337-8.085-1.46-10.424 1.961-2.337 3.419-1.459 8.086 1.961 10.424 19.792 13.526 42.938 20.677 66.935 20.677 65.567 0 118.91-53.343 118.91-118.91v-40.731h19.633v40.731c0 76.394-62.15 138.544-138.543 138.544s-138.543-62.15-138.543-138.544v-28.532h19.633v28.532c0 28.069 10.011 55.337 28.187 76.782 2.679 3.158 7.411 3.55 10.571.872 3.159-2.679 3.55-7.411.872-10.571-15.883-18.738-24.63-42.562-24.63-67.083v-28.713c8.455-1.162 14.994-8.414 14.994-17.182v-28.793c28.401-.299 51.418-23.485 51.418-51.957v-189.293c0-4.143-3.357-7.5-7.5-7.5h-15.48l-1.212-13.243c-1.138-12.415-11.396-21.776-23.863-21.776h-45.499c-4.143 0-7.5 3.357-7.5 7.5s3.357 7.5 7.5 7.5h45.499c4.662 0 8.498 3.5 8.923 8.143l1.087 11.876h-110.884l1.087-11.875c.426-4.643 4.262-8.144 8.923-8.144h15.378c4.143 0 7.5-3.357 7.5-7.5s-3.357-7.5-7.5-7.5h-15.378c-12.465 0-22.723 9.361-23.86 21.775l-1.212 13.243h-15.48c-4.143 0-7.5 3.357-7.5 7.5v189.292c0 28.472 23.016 51.657 51.417 51.957v28.793c0 9.574 7.789 17.363 17.363 17.363h2.144v28.532c0 84.665 68.879 153.545 153.543 153.545s153.543-68.88 153.543-153.544v-40.731h9.939c4.143 0 7.5-3.357 7.5-7.5v-27.544h9.757c4.143 0 7.5-3.357 7.5-7.5v-70.848c0-4.143-3.357-7.5-7.5-7.5s-7.5 3.357-7.5 7.5v63.348h-90.204v-156.683h90.204v63.348c0 4.142 3.357 7.5 7.5 7.5zm-390.206 49.965v-181.792h156.969v181.792c0 20.386-16.585 36.971-36.971 36.971h-83.027c-20.386-.001-36.971-16.586-36.971-36.971zm51.417 80.75v-28.779h54.134v28.779c0 1.303-1.061 2.363-2.363 2.363h-49.407c-1.303 0-2.364-1.061-2.364-2.363zm314.032-9.836h-55.69v-20.043h55.69zm-50.818-272.181c0-1.86 1.513-3.373 3.373-3.373h39.201c1.859 0 3.372 1.513 3.372 3.373v38.729h-45.946zm-10.19 65.454v-11.726h66.325v11.726z"/></g></svg>