<svg id="Layer_5" enable-background="new 0 0 64 64" height="512" viewBox="0 0 64 64" width="512" xmlns="http://www.w3.org/2000/svg"><path d="m61 55.184v-49.184c0-2.757-2.243-5-5-5h-30c-2.757 0-5 2.243-5 5v15h-16c-2.206 0-4 1.794-4 4v2c0 2.062 1.573 3.744 3.579 3.957-.359.6-.579 1.294-.579 2.043s.22 1.443.579 2.043c-2.006.213-3.579 1.895-3.579 3.957v2c0 2.062 1.573 3.744 3.579 3.957-.359.6-.579 1.294-.579 2.043s.22 1.443.579 2.043c-2.006.213-3.579 1.895-3.579 3.957v2c0 2.206 1.794 4 4 4h14v4h44v-5c0-1.302-.839-2.402-2-2.816zm-35-52.184h30c1.654 0 3 1.346 3 3v49h-36v-49c0-1.654 1.346-3 3-3zm-20 44c0-1.103.897-2 2-2h13v4h-13c-1.103 0-2-.897-2-2zm0-14c0-1.103.897-2 2-2h13v4h-13c-1.103 0-2-.897-2-2zm-3-6v-2c0-1.103.897-2 2-2h16v6h-13-3c-1.103 0-2-.897-2-2zm0 14v-2c0-1.103.897-2 2-2h3 13v6h-13-3c-1.103 0-2-.897-2-2zm0 14v-2c0-1.103.897-2 2-2h3 13v4.184c-.847.302-1.514.969-1.816 1.816h-14.184c-1.103 0-2-.897-2-2zm58 6h-40v-3c0-.552.448-1 1-1h38c.552 0 1 .448 1 1z"/><path d="m27 53h28c1.103 0 2-.897 2-2v-38c0-1.103-.897-2-2-2h-28c-1.103 0-2 .897-2 2v38c0 1.103.897 2 2 2zm0-40h28v38h-28z"/><path d="m25 5h2v2h-2z"/><path d="m29 5h2v2h-2z"/><path d="m33 5h2v2h-2z"/><path d="m50 15h-18c-1.654 0-3 1.346-3 3v4c0 1.654 1.346 3 3 3h18c1.654 0 3-1.346 3-3v-4c0-1.654-1.346-3-3-3zm1 7c0 .551-.448 1-1 1h-18c-.552 0-1-.449-1-1v-4c0-.551.448-1 1-1h18c.552 0 1 .449 1 1z"/><path d="m47 19h2v2h-2z"/><path d="m43 19h2v2h-2z"/><path d="m39 19h2v2h-2z"/><path d="m50 27h-18c-1.654 0-3 1.346-3 3v4c0 1.654 1.346 3 3 3h18c1.654 0 3-1.346 3-3v-4c0-1.654-1.346-3-3-3zm1 7c0 .552-.448 1-1 1h-18c-.552 0-1-.448-1-1v-4c0-.551.448-1 1-1h18c.552 0 1 .449 1 1z"/><path d="m33 31h2v2h-2z"/><path d="m37 31h2v2h-2z"/><path d="m41 31h2v2h-2z"/><path d="m50 39h-18c-1.654 0-3 1.346-3 3v4c0 1.654 1.346 3 3 3h18c1.654 0 3-1.346 3-3v-4c0-1.654-1.346-3-3-3zm1 7c0 .552-.448 1-1 1h-18c-.552 0-1-.448-1-1v-4c0-.552.448-1 1-1h18c.552 0 1 .448 1 1z"/><path d="m47 43h2v2h-2z"/><path d="m43 43h2v2h-2z"/><path d="m39 43h2v2h-2z"/><path d="m53 5h2v4h-2z"/><path d="m49 5h2v4h-2z"/><path d="m45 5h2v4h-2z"/></svg>