<svg id="Capa_1" enable-background="new 0 0 512 512" height="512" viewBox="0 0 512 512" width="512" xmlns="http://www.w3.org/2000/svg"><g><path d="m202.919 36.028v34.067c0 4.143 3.357 7.5 7.5 7.5h27.038c4.143 0 7.5-3.357 7.5-7.5v-34.067c0-4.143-3.357-7.5-7.5-7.5h-27.038c-4.142 0-7.5 3.358-7.5 7.5zm15 7.5h12.038v19.067h-12.038z"/><path d="m301.581 77.596c4.143 0 7.5-3.357 7.5-7.5v-34.068c0-4.143-3.357-7.5-7.5-7.5h-27.038c-4.143 0-7.5 3.357-7.5 7.5v34.067c0 4.143 3.357 7.5 7.5 7.5h27.038zm-19.539-34.068h12.038v19.067h-12.038z"/><path d="m294.821 161.457h-22.521c-4.143 0-7.5 3.357-7.5 7.5s3.357 7.5 7.5 7.5h15.021v12.412h-62.642v-12.412h17.634c4.143 0 7.5-3.357 7.5-7.5s-3.357-7.5-7.5-7.5h-25.134c-4.143 0-7.5 3.357-7.5 7.5v27.412c0 4.143 3.357 7.5 7.5 7.5h77.642c4.143 0 7.5-3.357 7.5-7.5v-27.412c0-4.143-3.358-7.5-7.5-7.5z"/><path d="m385.654 103.619h-21.466v-62.987c0-4.642-1.926-9.145-5.284-12.354l-24.65-23.546c-3.193-3.051-7.384-4.732-11.802-4.732h-83.52c-4.143 0-7.5 3.357-7.5 7.5s3.357 7.5 7.5 7.5h83.52c.539 0 1.051.205 1.44.577l24.649 23.546c.411.393.646.942.646 1.509v62.986h-12.593v-44.31c0-4.143-3.357-7.5-7.5-7.5s-7.5 3.357-7.5 7.5v44.31h-131.19v-44.31c0-4.143-3.357-7.5-7.5-7.5s-7.5 3.357-7.5 7.5v44.31h-12.593v-62.986c0-.566.235-1.115.646-1.508l24.651-23.548c.389-.371.9-.576 1.439-.576h19.396c4.143 0 7.5-3.357 7.5-7.5s-3.357-7.5-7.5-7.5h-19.396c-4.418 0-8.609 1.681-11.802 4.731l-24.65 23.546c-3.358 3.208-5.284 7.711-5.284 12.354v62.987h-21.466c-9.246 0-16.769 7.522-16.769 16.769v157.544c0 26.655 10.304 51.795 29.014 70.789 2.906 2.95 7.656 2.987 10.605.08 2.951-2.906 2.987-7.655.08-10.605-15.928-16.171-24.699-37.572-24.699-60.264v-62.146c35.549 17.752 82.603 27.792 131.422 27.792s95.873-10.04 131.423-27.792v62.146c0 47.353-38.52 85.878-85.87 85.887-.005 0-.01-.001-.015-.001h-91.073c-.005 0-.01.001-.015.001-13.581-.002-26.574-3.085-38.62-9.164-3.699-1.867-8.208-.382-10.074 3.316-1.866 3.697-.382 8.208 3.316 10.074 11.929 6.02 24.646 9.531 37.893 10.492v38.321c0 8.901 7.241 16.143 16.142 16.143h8.896v71.5c0 4.143 3.357 7.5 7.5 7.5s7.5-3.357 7.5-7.5v-71.499h25.997v71.499c0 4.143 3.357 7.5 7.5 7.5s7.5-3.357 7.5-7.5v-71.499h8.896c8.901 0 16.143-7.241 16.143-16.143v-38.318c52.14-3.85 93.386-47.501 93.386-100.608v-157.544c-.001-9.246-7.523-16.769-16.769-16.769zm-92.76 314.382h-73.789c-.63 0-1.142-.513-1.142-1.143v-38.04h76.073v38.04c.001.63-.512 1.143-1.142 1.143zm-36.894-189.423c-49.769 0-97.352-10.805-131.422-29.738v-78.453c0-.976.793-1.769 1.769-1.769h259.308c.976 0 1.769.793 1.769 1.769v78.453c-34.072 18.933-81.655 29.738-131.424 29.738z"/><path d="m269.738 327.981c4.143 0 7.5-3.357 7.5-7.5s-3.357-7.5-7.5-7.5h-27.476c-4.143 0-7.5 3.357-7.5 7.5s3.357 7.5 7.5 7.5z"/></g></svg>