<svg enable-background="new 0 0 34 60" height="512" viewBox="0 0 34 60" width="512" xmlns="http://www.w3.org/2000/svg"><path d="m17 22c-5.466 0-11-1.546-11-4.5s5.534-4.5 11-4.5 11 1.546 11 4.5-5.534 4.5-11 4.5zm0-7c-5.583 0-9 1.619-9 2.5s3.417 2.5 9 2.5 9-1.619 9-2.5-3.417-2.5-9-2.5z"/><path d="m17 36c-5.466 0-11-1.546-11-4.5v-7c0-.552.448-1 1-1s1 .448 1 1c0 .881 3.417 2.5 9 2.5s9-1.619 9-2.5c0-.552.448-1 1-1s1 .448 1 1v7c0 2.954-5.534 4.5-11 4.5zm-9-8.8v4.3c0 .881 3.417 2.5 9 2.5s9-1.619 9-2.5v-4.3c-4.196 2.377-13.804 2.377-18 0z"/><path d="m17 43c-5.466 0-11-1.546-11-4.5v-7c0-.552.448-1 1-1s1 .448 1 1c0 .881 3.417 2.5 9 2.5s9-1.619 9-2.5c0-.552.448-1 1-1s1 .448 1 1v7c0 2.954-5.534 4.5-11 4.5zm-9-8.8v4.3c0 .881 3.417 2.5 9 2.5s9-1.619 9-2.5v-4.3c-4.196 2.377-13.804 2.377-18 0z"/><path d="m17 29c-5.466 0-11-1.546-11-4.5v-7c0-.552.448-1 1-1s1 .448 1 1c0 .881 3.417 2.5 9 2.5s9-1.619 9-2.5c0-.552.448-1 1-1s1 .448 1 1v7c0 2.954-5.534 4.5-11 4.5zm-9-8.8v4.3c0 .881 3.417 2.5 9 2.5s9-1.619 9-2.5v-4.3c-4.196 2.377-13.804 2.377-18 0z"/><path d="m22 5h-10c-.552 0-1-.448-1-1s.448-1 1-1h10c.552 0 1 .448 1 1s-.448 1-1 1z"/><path d="m29 5h-1c-.552 0-1-.448-1-1s.448-1 1-1h1c.552 0 1 .448 1 1s-.448 1-1 1z"/><path d="m18.241 57h-2.483c-1.52 0-2.758-1.237-2.758-2.758v-.483c0-1.521 1.238-2.759 2.759-2.759h2.483c1.52 0 2.758 1.238 2.758 2.759v.483c0 1.521-1.238 2.758-2.759 2.758zm-2.482-4c-.419 0-.759.34-.759.759v.483c0 .418.34.758.759.758h2.483c.418 0 .758-.34.758-.758v-.483c0-.419-.34-.759-.759-.759z"/><path d="m30.385 60h-26.77c-1.993 0-3.615-1.622-3.615-3.615v-52.77c0-1.993 1.622-3.615 3.615-3.615h26.771c1.992 0 3.614 1.622 3.614 3.615v52.771c0 1.992-1.622 3.614-3.615 3.614zm-26.77-58c-.891 0-1.615.725-1.615 1.615v52.771c0 .889.724 1.614 1.615 1.614h26.771c.89 0 1.614-.725 1.614-1.615v-52.77c0-.89-.724-1.615-1.615-1.615z"/><path d="m33 50h-32c-.552 0-1-.448-1-1v-42c0-.552.448-1 1-1h32c.552 0 1 .448 1 1v42c0 .552-.448 1-1 1zm-31-2h30v-40h-30z"/></svg>