<?xml version="1.0" encoding="utf-8"?>
<!-- Generator: Adobe Illustrator 23.1.0, SVG Export Plug-In . SVG Version: 6.00 Build 0)  -->
<svg version="1.1" id="Layer_4" xmlns="http://www.w3.org/2000/svg" xmlns:xlink="http://www.w3.org/1999/xlink" x="0px" y="0px"
	 viewBox="0 0 553.2 316.5" style="enable-background:new 0 0 553.2 316.5;" xml:space="preserve">
<style type="text/css">
	.st0{fill:#FFFAED;}
</style>
<title>The Cloud Page Icon</title>
<path class="st0" d="M454.3,143c-1.5,1.4-4,1.4-5.4-0.2c-0.1-0.1-0.1-0.1-0.2-0.2c-1.7-2.1-2.6-4.8-2.3-7.6c0.3-3.1,0.5-6.3,0.5-9.5
	C446.9,67.3,399.7,20,341.4,20c-31.1,0-60.6,13.7-80.7,37.4c-2.6,3-6.6,4.3-10.4,3.4c-8.2-1.9-16.6-2.9-25.1-3l0,0
	c-44.1,0-76.4,9.8-91.8,50.4c-0.7,1.9-2.8,2.9-4.7,2.3l-11-3.4c-2-0.6-3.1-2.8-2.5-4.8c0-0.1,0.1-0.3,0.1-0.4
	c19.9-45.8,59.2-65,109.9-65c7.3,0,14.6,0.7,21.8,2c1.3,0.2,2.5-0.2,3.4-1.1c48.5-50.2,128.5-51.5,178.7-3
	c24.6,23.8,38.5,56.6,38.5,90.9c0,1.1,0,2.1,0,3.1c0,1-0.5,2-1.2,2.7L454.3,143z"/>
<path class="st0" d="M495.4,272c0.7,0.2,1.1,0.9,0.9,1.6c0,0.1-0.1,0.3-0.2,0.4c-18.8,26.3-49.2,41.9-81.5,41.9H125.3
	c-33.9,0-58-16.9-76.1-42.8c-0.4-0.6-0.2-1.5,0.4-1.9c0.2-0.1,0.5-0.2,0.7-0.2h22.3c0.5,0,0.9,0.2,1.2,0.6c0.8,1.2,2.6,4,3.4,4.9
	c12.7,14.7,27.2,18.4,48.1,18.4h289.4c23.8,0,43.2-7.5,57.7-24.1c0.5-0.6,1.3-0.9,2.1-0.7L495.4,272z"/>
<path class="st0" d="M90.8,261.3c-19,0-35.4-6.1-47.4-17.7c-12.6-12.2-19.2-29.6-19.2-50.3c0-41.3,28.7-70.2,69.8-70.2
	c17.9,0,28.2,4.4,31.8,6.2l7.3,3.8l-9.3,31.3l-10.6-5.1c-2.9-1.4-9.2-3.8-18.8-3.8c-22.1,0-34.7,13.6-34.7,37.3
	c0,23.3,12.1,36.1,34,36.1c7.3,0,15.1-1.5,19.8-3.8l11-5.3l8.2,31.4l-7.3,3.6C117.4,258.9,104.4,261.3,90.8,261.3z"/>
<rect x="146.1" y="118.9" class="st0" width="35" height="140.7"/>
<path class="st0" d="M246.7,261.5c-28.6,0-49.4-22-49.4-52.3c0-31.6,20.9-53.7,50.8-53.7c29.2,0,49.6,21.5,49.6,52.3
	C297.7,244.7,271.3,261.5,246.7,261.5z M247.7,186.7c-14.9,0-15.3,19.7-15.3,22c0,12.5,6.3,21.6,15,21.6s15-9.2,15-22
	C262.4,208.1,262.2,186.7,247.7,186.7L247.7,186.7z"/>
<path class="st0" d="M351.4,261.5c-18.6,0-38.4-12.1-38.4-46v-58.1h35v55.6c0,16.2,5.2,16.2,8.4,16.2c5.8,0,9.3-4.5,10.4-7.3
	c0.4-1.3,0.7-2.6,0.6-4v-60.4h35v69.8c0,9.2,0.2,16,0.6,21.6l0.9,10.8h-33.5l-0.2-2.5C364.4,260,358,261.5,351.4,261.5z"/>
<path class="st0" d="M463.5,261.5c-26.2,0-45.2-21.8-45.2-51.8c-0.1-16.4,5.3-31,15.3-41c12.2-12.3,30.4-16.4,46.8-10.7v-39.1h35
	v109.4c0,8.6,0.2,15.8,0.6,20.3l1,10.9h-34l-0.1-2.5C476.8,260,470.2,261.5,463.5,261.5z M468,187.2c-13.9,0-14.6,18.1-14.6,21.8
	c0,4.8,1,20.4,14.3,20.4c5.9,0,10.7-4,12.2-10.2c0.3-1.3,0.4-2.7,0.4-4.1v-14.3c0-1.2-0.1-2.5-0.3-3.7l0-0.2v-0.2
	C478.7,191.2,473.7,187.2,468,187.2z"/>
</svg>
