<svg id="Layer_4" data-name="Layer 4" xmlns="http://www.w3.org/2000/svg" viewBox="0 0 553.19 316.5"><title>The Cloud Page Icon</title><path d="M454.26,143a3.82,3.82,0,0,1-5.58-.38,10.39,10.39,0,0,1-2.31-7.57c.3-3.1.5-6.3.5-9.5a105.52,105.52,0,0,0-186.1-68.2,10.48,10.48,0,0,1-10.4,3.4,116.86,116.86,0,0,0-25.1-3h0c-44.1,0-76.42,9.76-91.8,50.44a3.79,3.79,0,0,1-4.67,2.29l-11-3.39a3.82,3.82,0,0,1-2.38-5.16c19.93-45.81,59.21-65,109.88-65a120.94,120.94,0,0,1,21.78,2,3.79,3.79,0,0,0,3.43-1.11,126.36,126.36,0,0,1,217.19,87.89c0,1.06,0,2.07,0,3.09a3.81,3.81,0,0,1-1.2,2.67Z"/><path d="M495.41,272a1.3,1.3,0,0,1,.74,2,100.26,100.26,0,0,1-81.48,41.88H125.27c-33.91,0-57.95-16.92-76.11-42.76A1.38,1.38,0,0,1,50.3,271H72.55a1.35,1.35,0,0,1,1.15.63c.8,1.24,2.59,4,3.44,4.94,12.67,14.7,27.22,18.35,48.13,18.35h289.4c23.79,0,43.17-7.51,57.73-24.13a2.09,2.09,0,0,1,2.1-.66Z"/><path d="M90.82,261.32c-19,0-35.41-6.13-47.38-17.72C30.86,231.42,24.21,214,24.21,193.35c0-41.32,28.72-70.18,69.84-70.18,17.94,0,28.23,4.36,31.82,6.23l7.3,3.81-9.25,31.27-10.61-5.14c-2.89-1.41-9.18-3.76-18.75-3.76-22.06,0-34.71,13.58-34.71,37.26,0,23.26,12.08,36.07,34,36.07,7.31,0,15.07-1.48,19.77-3.76l11-5.32,8.18,31.37-7.25,3.62C117.42,258.89,104.43,261.32,90.82,261.32Z"/><rect x="146.09" y="118.92" width="34.96" height="140.7"/><path d="M246.7,261.49c-28.64,0-49.44-22-49.44-52.33,0-31.61,20.89-53.69,50.8-53.69,29.21,0,49.61,21.52,49.61,52.33C297.67,244.69,271.25,261.49,246.7,261.49Zm1-74.8c-14.9,0-15.33,19.71-15.33,22,0,12.53,6.31,21.62,15,21.62s15-9.24,15-22C262.37,208.09,262.21,186.69,247.72,186.69Z"/><path d="M351.42,261.49c-18.56,0-38.39-12.1-38.39-46V157.34h35V212.9c0,16.18,5.24,16.18,8.36,16.18,5.8,0,9.25-4.53,10.43-7.29a12.13,12.13,0,0,0,.65-4V157.34h35v69.84c0,9.16.21,16,.65,21.65l.85,10.79H370.43l-.16-2.5A42.17,42.17,0,0,1,351.42,261.49Z"/><path d="M463.45,261.49c-26.18,0-45.19-21.8-45.19-51.82-.1-16.42,5.32-31,15.26-41A44.93,44.93,0,0,1,480.31,158V118.92h35V228.37c0,8.58.23,15.81.64,20.34l1,10.91H483l-.12-2.54A44,44,0,0,1,463.45,261.49ZM468,187.2c-13.94,0-14.65,18.15-14.65,21.79,0,4.79,1,20.43,14.31,20.43,5.92,0,10.71-4,12.21-10.21a16.1,16.1,0,0,0,.4-4.1V200.83a17.24,17.24,0,0,0-.33-3.66l-.05-.19,0-.18A12.08,12.08,0,0,0,468,187.2Z"/></svg>